<svg xmlns="http://www.w3.org/2000/svg" viewBox="0 0 24 24" aria-hidden="true"><title>GitHub</title><path fill="#111827" d="M12 .5a12 12 0 00-3.8 23.4c.6.1.8-.3.8-.6v-2c-3.3.7-4-1.4-4-1.4-.6-1.5-1.4-1.9-1.4-1.9-1.2-.8.1-.8.1-.8 1.3.1 2 .1 2 .1 1.2 2 3.2 1.4 4 .9.1-.9.5-1.4.9-1.8-2.6-.3-5.4-1.3-5.4-5.9 0-1.3.5-2.5 1.3-3.4-.1-.3-.6-1.6.1-3.3 0 0 1-.3 3.5 1.3A12 12 0 0112 4.8c1 0 2.1.1 3.1.4 2.5-1.7 3.5-1.3 3.5-1.3.7 1.7.2 3 .1 3.3.8.9 1.3 2.1 1.3 3.4 0 4.6-2.8 5.6-5.4 5.9.5.4 1 .9 1 2v3c0 .3.2.7.8.6A12 12 0 0012 .5z"/></svg>